<svg width="33" height="29" viewBox="0 0 33 29" fill="none" xmlns="http://www.w3.org/2000/svg">
<path d="M15.9111 23.7891V28.5303L12.3926 27.1523V22.4111L15.9111 23.7891Z" fill="#E0FDFF"/>
<path d="M20.501 27.1523L16.9824 28.5303V23.7891L20.501 22.4111V27.1523Z" fill="#B6F6F9"/>
<path d="M11.6279 22.1064V26.8477L8.1084 25.4697V20.7275L11.6279 22.1064Z" fill="#B6F6F9"/>
<path d="M24.7852 25.4697L21.2666 26.8477V22.1064L24.7852 20.7275V25.4697Z" fill="#B6F6F9"/>
<path d="M7.34375 20.4229V25.165L3.8252 23.7861V19.0449L7.34375 20.4229Z" fill="#B6F6F9"/>
<path d="M29.0693 23.7861L25.5498 25.165V20.4229L29.0693 19.0449V23.7861Z" fill="#E0FDFF"/>
<path d="M3.21289 18.7402V23.4814L0 22.2236V17.4814L3.21289 18.7402Z" fill="#E0FDFF"/>
<path d="M32.8936 22.2236L29.6807 23.4814V18.7402L32.8936 17.4814V22.2236Z" fill="#B6F6F9"/>
<path d="M15.9111 17.9756V22.7168L12.3926 21.3379V16.5967L15.9111 17.9756Z" fill="#E0FDFF"/>
<path d="M20.501 21.3379L16.9824 22.7168V17.9756L20.501 16.5967V21.3379Z" fill="#B6F6F9"/>
<path d="M11.6279 16.292V21.0342L8.1084 19.6553V14.9141L11.6279 16.292Z" fill="#E0FDFF"/>
<path d="M24.7852 19.6553L21.2666 21.0342V16.292L24.7852 14.9141V19.6553Z" fill="#E0FDFF"/>
<path d="M7.34375 14.6094V19.3506L3.8252 17.9727V13.2305L7.34375 14.6094Z" fill="#B6F6F9"/>
<path d="M29.0693 17.9727L25.5498 19.3506V14.6094L29.0693 13.2305V17.9727Z" fill="#B6F6F9"/>
<path d="M3.21289 12.9268V17.668L0 16.4092V11.668L3.21289 12.9268Z" fill="#B6F6F9"/>
<path d="M32.8936 16.4092L29.6807 17.668V12.9268L32.8936 11.668V16.4092Z" fill="#E0FDFF"/>
<path d="M15.9111 12.3145V17.0557L12.3926 15.6777V10.9355L15.9111 12.3145Z" fill="#B6F6F9"/>
<path d="M20.501 15.6777L16.9824 17.0557V12.3145L20.501 10.9355V15.6777Z" fill="#B6F6F9"/>
<path d="M11.6279 10.6318V15.373L8.1084 13.9941V9.25293L11.6279 10.6318Z" fill="#B6F6F9"/>
<path d="M24.7852 13.9941L21.2666 15.373V10.6318L24.7852 9.25293V13.9941Z" fill="#E0FDFF"/>
<path d="M7.34375 8.94824V13.6895L3.8252 12.3115V7.57031L7.34375 8.94824Z" fill="#E0FDFF"/>
<path d="M29.0693 12.3115L25.5498 13.6895V8.94824L29.0693 7.57031V12.3115Z" fill="#B6F6F9"/>
<path d="M3.21289 7.26562V12.0068L0.173828 10.8164L0.116211 10.8398L0.115234 6.05273L3.21289 7.26562Z" fill="#B6F6F9"/>
<path d="M32.7783 10.7939L32.7598 10.8008V10.8398L32.71 10.8203L29.6807 12.0068V7.26562L32.7783 6.05273V10.7939Z" fill="#B6F6F9"/>
<path d="M15.9111 10.2627L14.2598 10.9092L12.3926 10.1777V6.89941L15.9111 5.52148V10.2627Z" fill="#E0FDFF"/>
<path d="M20.501 6.89941V10.1777L18.6328 10.9092L16.9824 10.2627V5.52148L20.501 6.89941Z" fill="#B6F6F9"/>
<path d="M11.627 9.87305L8.24023 8.54688L11.627 7.2207V9.87305Z" fill="#E0FDFF"/>
<path d="M24.6523 8.54688L21.2656 9.87305V7.2207L24.6523 8.54688Z" fill="#B6F6F9"/>
<path d="M7.34277 8.0332L7.29785 8.05078L3.82422 6.68945V4.66992L7.34277 3.29199V8.0332Z" fill="#B6F6F9"/>
<path d="M29.0508 4.66992V6.68945L25.5771 8.05078L25.5322 8.0332V3.29199L29.0508 4.66992Z" fill="#E0FDFF"/>
<path d="M11.6279 6.44043L8.1084 7.81836V3.07715L11.6279 1.69922V6.44043Z" fill="#B6F6F9"/>
<path d="M24.7852 3.07715V7.81836L21.2666 6.44043V1.69922L24.7852 3.07715Z" fill="#B6F6F9"/>
<path d="M3.21289 6.41602L1.25781 5.65039L3.21289 4.88477V6.41602Z" fill="#B6F6F9"/>
<path d="M31.6182 5.65039L29.6631 6.41602V4.88477L31.6182 5.65039Z" fill="#B6F6F9"/>
<path d="M15.9111 4.74121L12.3926 6.12012V1.37793L15.9111 0V4.74121Z" fill="#B6F6F9"/>
<path d="M20.501 1.37793V6.12012L16.9824 4.74121V0L20.501 1.37793Z" fill="#E0FDFF"/>
</svg>
